<mxfile host="app.diagrams.net" agent="Mozilla/5.0 (Windows NT 10.0; Win64; x64) AppleWebKit/537.36 (KHTML, like Gecko) Chrome/127.0.0.0 Safari/537.36" version="24.7.7">
  <diagram name="Page-1" id="UAjpvJ85XB8n5dhYZquB">
    <mxGraphModel dx="1932" dy="558" grid="1" gridSize="10" guides="1" tooltips="1" connect="1" arrows="1" fold="1" page="1" pageScale="1" pageWidth="827" pageHeight="1169" math="0" shadow="0">
      <root>
        <mxCell id="0" />
        <mxCell id="1" parent="0" />
        <mxCell id="F08SmMuhYrjsykQwWGcK-52" value="" style="endArrow=none;html=1;rounded=0;strokeColor=#000000;strokeWidth=2;" edge="1" parent="1" target="F08SmMuhYrjsykQwWGcK-91">
          <mxGeometry width="50" height="50" relative="1" as="geometry">
            <mxPoint x="172" y="610" as="sourcePoint" />
            <mxPoint x="172" y="250" as="targetPoint" />
          </mxGeometry>
        </mxCell>
        <mxCell id="F08SmMuhYrjsykQwWGcK-53" value="" style="endArrow=none;html=1;rounded=0;strokeColor=#000000;strokeWidth=2;" edge="1" parent="1" target="F08SmMuhYrjsykQwWGcK-92">
          <mxGeometry width="50" height="50" relative="1" as="geometry">
            <mxPoint x="439.52" y="610" as="sourcePoint" />
            <mxPoint x="439.52" y="250" as="targetPoint" />
          </mxGeometry>
        </mxCell>
        <mxCell id="F08SmMuhYrjsykQwWGcK-56" value="&lt;font style=&quot;font-size: 14px;&quot;&gt;Ajout de la zone&amp;nbsp;&lt;span style=&quot;background-color: initial;&quot;&gt;eya.tn&amp;nbsp;&lt;/span&gt;&lt;/font&gt;" style="text;html=1;align=left;verticalAlign=middle;whiteSpace=wrap;rounded=0;" vertex="1" parent="1">
          <mxGeometry x="-33.5" y="267" width="180" height="60" as="geometry" />
        </mxCell>
        <mxCell id="F08SmMuhYrjsykQwWGcK-57" value="" style="endArrow=classic;html=1;rounded=0;" edge="1" parent="1">
          <mxGeometry width="50" height="50" relative="1" as="geometry">
            <mxPoint x="440" y="370" as="sourcePoint" />
            <mxPoint x="172" y="370" as="targetPoint" />
          </mxGeometry>
        </mxCell>
        <mxCell id="F08SmMuhYrjsykQwWGcK-58" value="&lt;font style=&quot;font-size: 14px;&quot;&gt;Requête AXFR&lt;/font&gt;" style="text;html=1;align=center;verticalAlign=middle;whiteSpace=wrap;rounded=0;" vertex="1" parent="1">
          <mxGeometry x="244" y="340" width="110" height="30" as="geometry" />
        </mxCell>
        <mxCell id="F08SmMuhYrjsykQwWGcK-59" value="" style="endArrow=none;html=1;rounded=0;endFill=0;startArrow=classic;startFill=1;" edge="1" parent="1">
          <mxGeometry width="50" height="50" relative="1" as="geometry">
            <mxPoint x="440" y="410" as="sourcePoint" />
            <mxPoint x="172" y="410" as="targetPoint" />
          </mxGeometry>
        </mxCell>
        <mxCell id="F08SmMuhYrjsykQwWGcK-60" value="&lt;font style=&quot;font-size: 14px;&quot;&gt;Réponse AXFR&lt;/font&gt;" style="text;html=1;align=center;verticalAlign=middle;whiteSpace=wrap;rounded=0;" vertex="1" parent="1">
          <mxGeometry x="250" y="382" width="110" height="30" as="geometry" />
        </mxCell>
        <mxCell id="F08SmMuhYrjsykQwWGcK-61" value="&lt;font style=&quot;font-size: 14px;&quot;&gt;Modification de la zone&amp;nbsp;&lt;span style=&quot;background-color: initial;&quot;&gt;eya.tn&amp;nbsp; : incrémentation de serial number&lt;/span&gt;&lt;/font&gt;" style="text;html=1;align=left;verticalAlign=middle;whiteSpace=wrap;rounded=0;" vertex="1" parent="1">
          <mxGeometry x="-47" y="403" width="239" height="43" as="geometry" />
        </mxCell>
        <mxCell id="F08SmMuhYrjsykQwWGcK-62" value="" style="endArrow=none;html=1;rounded=0;strokeColor=#000000;strokeWidth=2;entryX=0.5;entryY=1;entryDx=0;entryDy=0;" edge="1" parent="1" target="F08SmMuhYrjsykQwWGcK-64">
          <mxGeometry width="50" height="50" relative="1" as="geometry">
            <mxPoint x="-80" y="610" as="sourcePoint" />
            <mxPoint x="-79.51999999999998" y="250" as="targetPoint" />
          </mxGeometry>
        </mxCell>
        <mxCell id="F08SmMuhYrjsykQwWGcK-63" value="" style="endArrow=classic;html=1;rounded=0;" edge="1" parent="1">
          <mxGeometry width="50" height="50" relative="1" as="geometry">
            <mxPoint x="170" y="310" as="sourcePoint" />
            <mxPoint x="-80" y="310" as="targetPoint" />
          </mxGeometry>
        </mxCell>
        <mxCell id="F08SmMuhYrjsykQwWGcK-64" value="&lt;span style=&quot;color: rgb(0, 97, 235); font-size: 15px;&quot;&gt;Serveur faisant autorité PowerDNS master&lt;/span&gt;" style="rounded=0;whiteSpace=wrap;html=1;" vertex="1" parent="1">
          <mxGeometry x="-170" y="159" width="180" height="50" as="geometry" />
        </mxCell>
        <mxCell id="F08SmMuhYrjsykQwWGcK-65" value="" style="endArrow=none;html=1;rounded=0;strokeColor=#000000;strokeWidth=2;entryX=0.403;entryY=1;entryDx=0;entryDy=0;entryPerimeter=0;" edge="1" parent="1" target="F08SmMuhYrjsykQwWGcK-66">
          <mxGeometry width="50" height="50" relative="1" as="geometry">
            <mxPoint x="620" y="610" as="sourcePoint" />
            <mxPoint x="624.5" y="270" as="targetPoint" />
          </mxGeometry>
        </mxCell>
        <mxCell id="F08SmMuhYrjsykQwWGcK-66" value="&lt;span style=&quot;color: rgb(0, 97, 235); font-size: 15px;&quot;&gt;Serveur faisant autorité PowerDNS slave&lt;/span&gt;" style="rounded=0;whiteSpace=wrap;html=1;" vertex="1" parent="1">
          <mxGeometry x="558" y="161" width="160" height="50" as="geometry" />
        </mxCell>
        <mxCell id="F08SmMuhYrjsykQwWGcK-67" value="" style="endArrow=none;html=1;rounded=0;endFill=0;startArrow=classic;startFill=1;" edge="1" parent="1">
          <mxGeometry width="50" height="50" relative="1" as="geometry">
            <mxPoint x="440" y="330" as="sourcePoint" />
            <mxPoint x="170" y="330" as="targetPoint" />
          </mxGeometry>
        </mxCell>
        <mxCell id="F08SmMuhYrjsykQwWGcK-68" value="&lt;font style=&quot;font-size: 14px;&quot;&gt;&lt;span class=&quot;hljs-selector-tag&quot;&gt;Autorisation de&amp;nbsp;&lt;/span&gt;&lt;/font&gt;&lt;div&gt;&lt;font style=&quot;font-size: 14px;&quot;&gt;&lt;span class=&quot;hljs-selector-tag&quot;&gt;transfert&lt;/span&gt;&amp;nbsp;et&amp;nbsp;&lt;span class=&quot;hljs-selector-tag&quot;&gt;notification&lt;/span&gt;&lt;/font&gt;&lt;/div&gt;" style="text;html=1;align=center;verticalAlign=middle;whiteSpace=wrap;rounded=0;" vertex="1" parent="1">
          <mxGeometry x="181" y="292" width="248" height="35" as="geometry" />
        </mxCell>
        <mxCell id="F08SmMuhYrjsykQwWGcK-69" value="" style="endArrow=classic;html=1;rounded=0;" edge="1" parent="1">
          <mxGeometry width="50" height="50" relative="1" as="geometry">
            <mxPoint x="170" y="450" as="sourcePoint" />
            <mxPoint x="-80" y="450" as="targetPoint" />
          </mxGeometry>
        </mxCell>
        <mxCell id="F08SmMuhYrjsykQwWGcK-70" value="" style="endArrow=none;html=1;rounded=0;endFill=0;startArrow=classic;startFill=1;" edge="1" parent="1">
          <mxGeometry width="50" height="50" relative="1" as="geometry">
            <mxPoint x="620" y="420" as="sourcePoint" />
            <mxPoint x="440" y="420" as="targetPoint" />
          </mxGeometry>
        </mxCell>
        <mxCell id="F08SmMuhYrjsykQwWGcK-71" value="&lt;font style=&quot;font-size: 14px;&quot;&gt;&lt;span class=&quot;hljs-selector-tag&quot;&gt;Zone&lt;/span&gt;&amp;nbsp;&lt;span class=&quot;hljs-selector-tag&quot;&gt;stock&lt;/span&gt;é&lt;span class=&quot;hljs-selector-tag&quot;&gt;e&lt;/span&gt;&lt;/font&gt;" style="text;html=1;align=center;verticalAlign=middle;whiteSpace=wrap;rounded=0;" vertex="1" parent="1">
          <mxGeometry x="479" y="392" width="110" height="30" as="geometry" />
        </mxCell>
        <mxCell id="F08SmMuhYrjsykQwWGcK-72" value="" style="endArrow=none;html=1;rounded=0;endFill=0;startArrow=classic;startFill=1;" edge="1" parent="1">
          <mxGeometry width="50" height="50" relative="1" as="geometry">
            <mxPoint x="440" y="470" as="sourcePoint" />
            <mxPoint x="170" y="470" as="targetPoint" />
          </mxGeometry>
        </mxCell>
        <mxCell id="F08SmMuhYrjsykQwWGcK-73" value="&lt;span style=&quot;font-size: 14px;&quot; class=&quot;hljs-selector-tag&quot;&gt;Autorisation de transfert&lt;/span&gt;&lt;span style=&quot;font-size: 14px;&quot;&gt;&amp;nbsp;et&amp;nbsp;&lt;/span&gt;&lt;span style=&quot;font-size: 14px;&quot; class=&quot;hljs-selector-tag&quot;&gt;notification&lt;/span&gt;" style="text;html=1;align=center;verticalAlign=middle;whiteSpace=wrap;rounded=0;" vertex="1" parent="1">
          <mxGeometry x="209.5" y="422" width="191" height="60" as="geometry" />
        </mxCell>
        <mxCell id="F08SmMuhYrjsykQwWGcK-74" value="" style="endArrow=classic;html=1;rounded=0;endFill=1;startArrow=none;startFill=0;" edge="1" parent="1">
          <mxGeometry width="50" height="50" relative="1" as="geometry">
            <mxPoint x="440" y="530" as="sourcePoint" />
            <mxPoint x="170" y="530" as="targetPoint" />
          </mxGeometry>
        </mxCell>
        <mxCell id="F08SmMuhYrjsykQwWGcK-75" value="&lt;span style=&quot;text-align: center;&quot;&gt;&lt;font style=&quot;font-size: 14px;&quot;&gt;Requête IXFR&lt;/font&gt;&lt;/span&gt;" style="text;html=1;align=left;verticalAlign=middle;whiteSpace=wrap;rounded=0;" vertex="1" parent="1">
          <mxGeometry x="259" y="490" width="91" height="60" as="geometry" />
        </mxCell>
        <mxCell id="F08SmMuhYrjsykQwWGcK-76" value="" style="endArrow=none;html=1;rounded=0;endFill=0;startArrow=classic;startFill=1;" edge="1" parent="1">
          <mxGeometry width="50" height="50" relative="1" as="geometry">
            <mxPoint x="440" y="570" as="sourcePoint" />
            <mxPoint x="170" y="570" as="targetPoint" />
          </mxGeometry>
        </mxCell>
        <mxCell id="F08SmMuhYrjsykQwWGcK-77" value="&lt;span style=&quot;text-align: center;&quot;&gt;&lt;font style=&quot;font-size: 14px;&quot;&gt;Réponse IXFR&lt;/font&gt;&lt;/span&gt;" style="text;html=1;align=left;verticalAlign=middle;whiteSpace=wrap;rounded=0;" vertex="1" parent="1">
          <mxGeometry x="255.5" y="532" width="99" height="50" as="geometry" />
        </mxCell>
        <mxCell id="F08SmMuhYrjsykQwWGcK-78" value="" style="endArrow=none;html=1;rounded=0;endFill=0;startArrow=classic;startFill=1;" edge="1" parent="1">
          <mxGeometry width="50" height="50" relative="1" as="geometry">
            <mxPoint x="620" y="590" as="sourcePoint" />
            <mxPoint x="440" y="590" as="targetPoint" />
          </mxGeometry>
        </mxCell>
        <mxCell id="F08SmMuhYrjsykQwWGcK-79" value="&lt;font style=&quot;font-size: 14px;&quot;&gt;&lt;span class=&quot;hljs-selector-tag&quot;&gt;Zone&lt;/span&gt;&amp;nbsp;modifié&lt;/font&gt;" style="text;html=1;align=center;verticalAlign=middle;whiteSpace=wrap;rounded=0;" vertex="1" parent="1">
          <mxGeometry x="480" y="565" width="110" height="30" as="geometry" />
        </mxCell>
        <mxCell id="F08SmMuhYrjsykQwWGcK-80" value="1" style="ellipse;whiteSpace=wrap;html=1;aspect=fixed;rotation=0;gradientColor=#0057D2;strokeColor=none;gradientDirection=east;fillColor=#2395FF;rounded=0;pointerEvents=0;fontFamily=Helvetica;fontSize=16;fontColor=#FFFFFF;spacingTop=4;spacingBottom=4;spacingLeft=4;spacingRight=4;points=[];fontStyle=1" vertex="1" parent="1">
          <mxGeometry x="-70" y="287" width="20" height="20" as="geometry" />
        </mxCell>
        <mxCell id="F08SmMuhYrjsykQwWGcK-81" value="2" style="ellipse;whiteSpace=wrap;html=1;aspect=fixed;rotation=0;gradientColor=#0057D2;strokeColor=none;gradientDirection=east;fillColor=#2395FF;rounded=0;pointerEvents=0;fontFamily=Helvetica;fontSize=16;fontColor=#FFFFFF;spacingTop=4;spacingBottom=4;spacingLeft=4;spacingRight=4;points=[];fontStyle=1" vertex="1" parent="1">
          <mxGeometry x="206" y="299.5" width="20" height="20" as="geometry" />
        </mxCell>
        <mxCell id="F08SmMuhYrjsykQwWGcK-82" value="3" style="ellipse;whiteSpace=wrap;html=1;aspect=fixed;rotation=0;gradientColor=#0057D2;strokeColor=none;gradientDirection=east;fillColor=#2395FF;rounded=0;pointerEvents=0;fontFamily=Helvetica;fontSize=16;fontColor=#FFFFFF;spacingTop=4;spacingBottom=4;spacingLeft=4;spacingRight=4;points=[];fontStyle=1" vertex="1" parent="1">
          <mxGeometry x="206" y="345" width="20" height="20" as="geometry" />
        </mxCell>
        <mxCell id="F08SmMuhYrjsykQwWGcK-83" value="4" style="ellipse;whiteSpace=wrap;html=1;aspect=fixed;rotation=0;gradientColor=#0057D2;strokeColor=none;gradientDirection=east;fillColor=#2395FF;rounded=0;pointerEvents=0;fontFamily=Helvetica;fontSize=16;fontColor=#FFFFFF;spacingTop=4;spacingBottom=4;spacingLeft=4;spacingRight=4;points=[];fontStyle=1" vertex="1" parent="1">
          <mxGeometry x="206" y="387" width="20" height="20" as="geometry" />
        </mxCell>
        <mxCell id="F08SmMuhYrjsykQwWGcK-84" value="5" style="ellipse;whiteSpace=wrap;html=1;aspect=fixed;rotation=0;gradientColor=#0057D2;strokeColor=none;gradientDirection=east;fillColor=#2395FF;rounded=0;pointerEvents=0;fontFamily=Helvetica;fontSize=16;fontColor=#FFFFFF;spacingTop=4;spacingBottom=4;spacingLeft=4;spacingRight=4;points=[];fontStyle=1" vertex="1" parent="1">
          <mxGeometry x="462" y="397" width="20" height="20" as="geometry" />
        </mxCell>
        <mxCell id="F08SmMuhYrjsykQwWGcK-85" value="6" style="ellipse;whiteSpace=wrap;html=1;aspect=fixed;rotation=0;gradientColor=#0057D2;strokeColor=none;gradientDirection=east;fillColor=#2395FF;rounded=0;pointerEvents=0;fontFamily=Helvetica;fontSize=16;fontColor=#FFFFFF;spacingTop=4;spacingBottom=4;spacingLeft=4;spacingRight=4;points=[];fontStyle=1" vertex="1" parent="1">
          <mxGeometry x="-70" y="414.5" width="20" height="20" as="geometry" />
        </mxCell>
        <mxCell id="F08SmMuhYrjsykQwWGcK-86" value="7" style="ellipse;whiteSpace=wrap;html=1;aspect=fixed;rotation=0;gradientColor=#0057D2;strokeColor=none;gradientDirection=east;fillColor=#2395FF;rounded=0;pointerEvents=0;fontFamily=Helvetica;fontSize=16;fontColor=#FFFFFF;spacingTop=4;spacingBottom=4;spacingLeft=4;spacingRight=4;points=[];fontStyle=1" vertex="1" parent="1">
          <mxGeometry x="206" y="446" width="20" height="20" as="geometry" />
        </mxCell>
        <mxCell id="F08SmMuhYrjsykQwWGcK-87" value="8" style="ellipse;whiteSpace=wrap;html=1;aspect=fixed;rotation=0;gradientColor=#0057D2;strokeColor=none;gradientDirection=east;fillColor=#2395FF;rounded=0;pointerEvents=0;fontFamily=Helvetica;fontSize=16;fontColor=#FFFFFF;spacingTop=4;spacingBottom=4;spacingLeft=4;spacingRight=4;points=[];fontStyle=1" vertex="1" parent="1">
          <mxGeometry x="206" y="507" width="20" height="20" as="geometry" />
        </mxCell>
        <mxCell id="F08SmMuhYrjsykQwWGcK-88" value="9" style="ellipse;whiteSpace=wrap;html=1;aspect=fixed;rotation=0;gradientColor=#0057D2;strokeColor=none;gradientDirection=east;fillColor=#2395FF;rounded=0;pointerEvents=0;fontFamily=Helvetica;fontSize=16;fontColor=#FFFFFF;spacingTop=4;spacingBottom=4;spacingLeft=4;spacingRight=4;points=[];fontStyle=1" vertex="1" parent="1">
          <mxGeometry x="206" y="547" width="20" height="20" as="geometry" />
        </mxCell>
        <mxCell id="F08SmMuhYrjsykQwWGcK-89" value="10" style="ellipse;whiteSpace=wrap;html=1;aspect=fixed;rotation=0;gradientColor=#0057D2;strokeColor=none;gradientDirection=east;fillColor=#2395FF;rounded=0;pointerEvents=0;fontFamily=Helvetica;fontSize=16;fontColor=#FFFFFF;spacingTop=4;spacingBottom=4;spacingLeft=4;spacingRight=4;points=[];fontStyle=1" vertex="1" parent="1">
          <mxGeometry x="463" y="568" width="20" height="20" as="geometry" />
        </mxCell>
        <mxCell id="F08SmMuhYrjsykQwWGcK-91" value="" style="sketch=0;outlineConnect=0;fontColor=#232F3E;gradientColor=none;fillColor=#0061EB;strokeColor=none;dashed=0;verticalLabelPosition=bottom;verticalAlign=top;align=center;html=1;fontSize=12;fontStyle=0;aspect=fixed;pointerEvents=1;shape=mxgraph.aws4.rds_postgresql_instance;" vertex="1" parent="1">
          <mxGeometry x="131.5" y="189" width="78" height="78" as="geometry" />
        </mxCell>
        <mxCell id="F08SmMuhYrjsykQwWGcK-92" value="" style="sketch=0;outlineConnect=0;fontColor=#232F3E;gradientColor=none;fillColor=#0061EB;strokeColor=none;dashed=0;verticalLabelPosition=bottom;verticalAlign=top;align=center;html=1;fontSize=12;fontStyle=0;aspect=fixed;pointerEvents=1;shape=mxgraph.aws4.rds_postgresql_instance;" vertex="1" parent="1">
          <mxGeometry x="400.5" y="189" width="78" height="78" as="geometry" />
        </mxCell>
        <mxCell id="F08SmMuhYrjsykQwWGcK-94" value="&lt;span style=&quot;color: rgb(0, 97, 235); font-size: 15px;&quot;&gt;Base de donnée master&lt;/span&gt;" style="text;html=1;align=center;verticalAlign=middle;whiteSpace=wrap;rounded=0;" vertex="1" parent="1">
          <mxGeometry x="65.5" y="159" width="210" height="30" as="geometry" />
        </mxCell>
        <mxCell id="F08SmMuhYrjsykQwWGcK-95" value="&lt;span style=&quot;color: rgb(0, 97, 235); font-size: 15px;&quot;&gt;Base de donnée slave&lt;/span&gt;" style="text;html=1;align=center;verticalAlign=middle;whiteSpace=wrap;rounded=0;" vertex="1" parent="1">
          <mxGeometry x="334.5" y="159" width="210" height="30" as="geometry" />
        </mxCell>
      </root>
    </mxGraphModel>
  </diagram>
</mxfile>
